<mxfile host="65bd71144e">
    <diagram id="kuqq4SYqoCh6iUg5N3_3" name="Page-1">
        <mxGraphModel dx="707" dy="768" grid="1" gridSize="10" guides="1" tooltips="1" connect="1" arrows="1" fold="1" page="1" pageScale="1" pageWidth="827" pageHeight="1169" math="0" shadow="0">
            <root>
                <mxCell id="0"/>
                <mxCell id="1" parent="0"/>
                <mxCell id="56" value="" style="whiteSpace=wrap;html=1;fillColor=#0050ef;fontColor=#ffffff;strokeColor=#001DBC;" vertex="1" parent="1">
                    <mxGeometry x="387.5" y="565" width="15" height="155" as="geometry"/>
                </mxCell>
                <mxCell id="3" value="" style="edgeStyle=none;orthogonalLoop=1;jettySize=auto;html=1;hachureGap=4;fontFamily=Architects Daughter;fontSource=https%3A%2F%2Ffonts.googleapis.com%2Fcss%3Ffamily%3DArchitects%2BDaughter;fontSize=16;endArrow=none;endFill=0;strokeWidth=2;jumpStyle=none;dashed=1;" edge="1" parent="1">
                    <mxGeometry width="80" relative="1" as="geometry">
                        <mxPoint x="200" y="460" as="sourcePoint"/>
                        <mxPoint x="199.74" y="240" as="targetPoint"/>
                    </mxGeometry>
                </mxCell>
                <mxCell id="4" value="" style="edgeStyle=none;orthogonalLoop=1;jettySize=auto;html=1;hachureGap=4;fontFamily=Architects Daughter;fontSource=https%3A%2F%2Ffonts.googleapis.com%2Fcss%3Ffamily%3DArchitects%2BDaughter;fontSize=16;endArrow=none;endFill=0;strokeWidth=2;jumpStyle=none;dashed=1;" edge="1" parent="1">
                    <mxGeometry width="80" relative="1" as="geometry">
                        <mxPoint x="400" y="460" as="sourcePoint"/>
                        <mxPoint x="400" y="240" as="targetPoint"/>
                        <Array as="points"/>
                    </mxGeometry>
                </mxCell>
                <mxCell id="5" value="" style="edgeStyle=none;orthogonalLoop=1;jettySize=auto;html=1;hachureGap=4;fontFamily=Architects Daughter;fontSource=https%3A%2F%2Ffonts.googleapis.com%2Fcss%3Ffamily%3DArchitects%2BDaughter;fontSize=16;endArrow=none;endFill=0;strokeWidth=2;jumpStyle=none;dashed=1;" edge="1" parent="1">
                    <mxGeometry width="80" relative="1" as="geometry">
                        <mxPoint x="600" y="460" as="sourcePoint"/>
                        <mxPoint x="600" y="240" as="targetPoint"/>
                        <Array as="points"/>
                    </mxGeometry>
                </mxCell>
                <mxCell id="9" value="" style="edgeStyle=none;orthogonalLoop=1;jettySize=auto;html=1;sketch=0;" edge="1" parent="1">
                    <mxGeometry width="100" relative="1" as="geometry">
                        <mxPoint x="200" y="270" as="sourcePoint"/>
                        <mxPoint x="390" y="270" as="targetPoint"/>
                        <Array as="points"/>
                    </mxGeometry>
                </mxCell>
                <mxCell id="10" value="" style="edgeStyle=none;orthogonalLoop=1;jettySize=auto;html=1;sketch=0;startArrow=classic;startFill=1;endArrow=none;endFill=0;" edge="1" parent="1">
                    <mxGeometry width="100" relative="1" as="geometry">
                        <mxPoint x="210" y="289.9999999999999" as="sourcePoint"/>
                        <mxPoint x="400" y="289.9999999999999" as="targetPoint"/>
                        <Array as="points"/>
                    </mxGeometry>
                </mxCell>
                <mxCell id="11" value="" style="edgeStyle=none;orthogonalLoop=1;jettySize=auto;html=1;sketch=0;" edge="1" parent="1">
                    <mxGeometry width="100" relative="1" as="geometry">
                        <mxPoint x="200" y="369.9999999999999" as="sourcePoint"/>
                        <mxPoint x="390" y="369.9999999999999" as="targetPoint"/>
                        <Array as="points"/>
                    </mxGeometry>
                </mxCell>
                <mxCell id="12" value="" style="edgeStyle=none;orthogonalLoop=1;jettySize=auto;html=1;sketch=0;" edge="1" parent="1">
                    <mxGeometry width="100" relative="1" as="geometry">
                        <mxPoint x="400" y="389.9999999999999" as="sourcePoint"/>
                        <mxPoint x="590" y="389.9999999999999" as="targetPoint"/>
                        <Array as="points"/>
                    </mxGeometry>
                </mxCell>
                <mxCell id="13" value="" style="edgeStyle=none;orthogonalLoop=1;jettySize=auto;html=1;sketch=0;startArrow=classic;startFill=1;endArrow=none;endFill=0;" edge="1" parent="1">
                    <mxGeometry width="100" relative="1" as="geometry">
                        <mxPoint x="410" y="409.9999999999999" as="sourcePoint"/>
                        <mxPoint x="600" y="409.9999999999999" as="targetPoint"/>
                        <Array as="points"/>
                    </mxGeometry>
                </mxCell>
                <mxCell id="14" value="" style="edgeStyle=none;orthogonalLoop=1;jettySize=auto;html=1;sketch=0;startArrow=classic;startFill=1;endArrow=none;endFill=0;" edge="1" parent="1">
                    <mxGeometry width="100" relative="1" as="geometry">
                        <mxPoint x="210" y="419.9999999999999" as="sourcePoint"/>
                        <mxPoint x="400" y="419.9999999999999" as="targetPoint"/>
                        <Array as="points"/>
                    </mxGeometry>
                </mxCell>
                <mxCell id="16" value="1: connexion" style="text;html=1;align=center;verticalAlign=middle;resizable=0;points=[];autosize=1;strokeColor=none;fillColor=none;" vertex="1" parent="1">
                    <mxGeometry x="255" y="240" width="90" height="30" as="geometry"/>
                </mxCell>
                <mxCell id="17" value="2: renvoie de la page" style="text;html=1;align=center;verticalAlign=middle;resizable=0;points=[];autosize=1;strokeColor=none;fillColor=none;" vertex="1" parent="1">
                    <mxGeometry x="230" y="290" width="140" height="30" as="geometry"/>
                </mxCell>
                <mxCell id="18" value="3: demande des fichiers de config" style="text;html=1;align=center;verticalAlign=middle;resizable=0;points=[];autosize=1;strokeColor=none;fillColor=none;" vertex="1" parent="1">
                    <mxGeometry x="200" y="340" width="200" height="30" as="geometry"/>
                </mxCell>
                <mxCell id="19" value="4: requête SQL" style="text;html=1;align=center;verticalAlign=middle;resizable=0;points=[];autosize=1;strokeColor=none;fillColor=none;" vertex="1" parent="1">
                    <mxGeometry x="455" y="360" width="100" height="30" as="geometry"/>
                </mxCell>
                <mxCell id="20" value="5: Renvoie les données" style="text;html=1;align=center;verticalAlign=middle;resizable=0;points=[];autosize=1;strokeColor=none;fillColor=none;" vertex="1" parent="1">
                    <mxGeometry x="440" y="410" width="150" height="30" as="geometry"/>
                </mxCell>
                <mxCell id="21" value="6: Renvoie les données" style="text;html=1;align=center;verticalAlign=middle;resizable=0;points=[];autosize=1;strokeColor=none;fillColor=none;" vertex="1" parent="1">
                    <mxGeometry x="225" y="420" width="150" height="30" as="geometry"/>
                </mxCell>
                <mxCell id="22" value="Client" style="text;html=1;align=center;verticalAlign=middle;resizable=0;points=[];autosize=1;strokeColor=none;fillColor=none;" vertex="1" parent="1">
                    <mxGeometry x="170" y="210" width="50" height="30" as="geometry"/>
                </mxCell>
                <mxCell id="23" value="Serveur" style="text;html=1;align=center;verticalAlign=middle;resizable=0;points=[];autosize=1;strokeColor=none;fillColor=none;" vertex="1" parent="1">
                    <mxGeometry x="360" y="210" width="70" height="30" as="geometry"/>
                </mxCell>
                <mxCell id="24" value="Base de donnée" style="text;html=1;align=center;verticalAlign=middle;resizable=0;points=[];autosize=1;strokeColor=none;fillColor=none;" vertex="1" parent="1">
                    <mxGeometry x="540" y="210" width="110" height="30" as="geometry"/>
                </mxCell>
                <mxCell id="25" value="Connexion à la page&amp;nbsp;" style="swimlane;whiteSpace=wrap;html=1;fillColor=none;strokeColor=default;" vertex="1" parent="1">
                    <mxGeometry x="130" y="170" width="540" height="300" as="geometry">
                        <mxRectangle x="130" y="170" width="160" height="30" as="alternateBounds"/>
                    </mxGeometry>
                </mxCell>
                <mxCell id="46" value="" style="whiteSpace=wrap;html=1;fillColor=#0050ef;fontColor=#ffffff;strokeColor=#001DBC;" vertex="1" parent="25">
                    <mxGeometry x="60" y="90" width="15" height="40" as="geometry"/>
                </mxCell>
                <mxCell id="48" value="" style="whiteSpace=wrap;html=1;fillColor=#0050ef;fontColor=#ffffff;strokeColor=#001DBC;" vertex="1" parent="25">
                    <mxGeometry x="262.5" y="90" width="15" height="40" as="geometry"/>
                </mxCell>
                <mxCell id="52" value="" style="whiteSpace=wrap;html=1;fillColor=#0050ef;fontColor=#ffffff;strokeColor=#001DBC;" vertex="1" parent="25">
                    <mxGeometry x="262.5" y="190" width="15" height="70" as="geometry"/>
                </mxCell>
                <mxCell id="53" value="" style="whiteSpace=wrap;html=1;fillColor=#0050ef;fontColor=#ffffff;strokeColor=#001DBC;" vertex="1" parent="25">
                    <mxGeometry x="463" y="210" width="15" height="40" as="geometry"/>
                </mxCell>
                <mxCell id="26" value="" style="edgeStyle=none;orthogonalLoop=1;jettySize=auto;html=1;hachureGap=4;fontFamily=Architects Daughter;fontSource=https%3A%2F%2Ffonts.googleapis.com%2Fcss%3Ffamily%3DArchitects%2BDaughter;fontSize=16;endArrow=none;endFill=0;strokeWidth=2;dashed=1;" edge="1" parent="1">
                    <mxGeometry width="80" relative="1" as="geometry">
                        <mxPoint x="195" y="770" as="sourcePoint"/>
                        <mxPoint x="194.74" y="550" as="targetPoint"/>
                    </mxGeometry>
                </mxCell>
                <mxCell id="27" value="" style="edgeStyle=none;orthogonalLoop=1;jettySize=auto;html=1;hachureGap=4;fontFamily=Architects Daughter;fontSource=https%3A%2F%2Ffonts.googleapis.com%2Fcss%3Ffamily%3DArchitects%2BDaughter;fontSize=16;endArrow=none;endFill=0;strokeWidth=2;dashed=1;startArrow=none;" edge="1" parent="1" source="56">
                    <mxGeometry width="80" relative="1" as="geometry">
                        <mxPoint x="395" y="770" as="sourcePoint"/>
                        <mxPoint x="395" y="550" as="targetPoint"/>
                        <Array as="points"/>
                    </mxGeometry>
                </mxCell>
                <mxCell id="28" value="" style="edgeStyle=none;orthogonalLoop=1;jettySize=auto;html=1;hachureGap=4;fontFamily=Architects Daughter;fontSource=https%3A%2F%2Ffonts.googleapis.com%2Fcss%3Ffamily%3DArchitects%2BDaughter;fontSize=16;endArrow=none;endFill=0;strokeWidth=2;dashed=1;" edge="1" parent="1">
                    <mxGeometry width="80" relative="1" as="geometry">
                        <mxPoint x="595" y="770" as="sourcePoint"/>
                        <mxPoint x="595" y="550" as="targetPoint"/>
                        <Array as="points"/>
                    </mxGeometry>
                </mxCell>
                <mxCell id="29" value="Client" style="text;html=1;align=center;verticalAlign=middle;resizable=0;points=[];autosize=1;strokeColor=none;fillColor=none;" vertex="1" parent="1">
                    <mxGeometry x="165" y="520" width="50" height="30" as="geometry"/>
                </mxCell>
                <mxCell id="30" value="Serveur" style="text;html=1;align=center;verticalAlign=middle;resizable=0;points=[];autosize=1;strokeColor=none;fillColor=none;" vertex="1" parent="1">
                    <mxGeometry x="355" y="520" width="70" height="30" as="geometry"/>
                </mxCell>
                <mxCell id="31" value="Base de donnée" style="text;html=1;align=center;verticalAlign=middle;resizable=0;points=[];autosize=1;strokeColor=none;fillColor=none;" vertex="1" parent="1">
                    <mxGeometry x="535" y="520" width="110" height="30" as="geometry"/>
                </mxCell>
                <mxCell id="39" value="Création d'une nouvelle config" style="swimlane;whiteSpace=wrap;html=1;fillColor=none;" vertex="1" parent="1">
                    <mxGeometry x="130" y="490" width="540" height="310" as="geometry"/>
                </mxCell>
                <mxCell id="61" value="" style="rounded=0;whiteSpace=wrap;html=1;strokeColor=default;fillColor=none;" vertex="1" parent="39">
                    <mxGeometry x="50" y="107" width="270" height="150" as="geometry"/>
                </mxCell>
                <mxCell id="65" value="" style="edgeStyle=none;orthogonalLoop=1;jettySize=auto;html=1;sketch=0;startArrow=classic;startFill=1;endArrow=none;endFill=0;startSize=8;exitX=0.074;exitY=0.42;exitDx=0;exitDy=0;exitPerimeter=0;dashed=1;" edge="1" parent="39" source="61">
                    <mxGeometry width="100" relative="1" as="geometry">
                        <mxPoint x="80" y="170" as="sourcePoint"/>
                        <mxPoint x="257.5" y="170" as="targetPoint"/>
                        <Array as="points"/>
                    </mxGeometry>
                </mxCell>
                <mxCell id="41" value="" style="edgeStyle=none;orthogonalLoop=1;jettySize=auto;html=1;sketch=0;" edge="1" parent="39">
                    <mxGeometry width="100" relative="1" as="geometry">
                        <mxPoint x="70" y="80" as="sourcePoint"/>
                        <mxPoint x="260" y="80" as="targetPoint"/>
                        <Array as="points"/>
                    </mxGeometry>
                </mxCell>
                <mxCell id="43" value="" style="edgeStyle=none;orthogonalLoop=1;jettySize=auto;html=1;sketch=0;startArrow=classic;startFill=1;endArrow=none;endFill=0;entryX=1.079;entryY=0.243;entryDx=0;entryDy=0;entryPerimeter=0;" edge="1" parent="39">
                    <mxGeometry width="80" relative="1" as="geometry">
                        <mxPoint x="280" y="97" as="sourcePoint"/>
                        <mxPoint x="273.68500000000006" y="82.93499999999995" as="targetPoint"/>
                        <Array as="points">
                            <mxPoint x="310" y="102"/>
                            <mxPoint x="330" y="102"/>
                            <mxPoint x="330" y="82"/>
                            <mxPoint x="310" y="82"/>
                        </Array>
                    </mxGeometry>
                </mxCell>
                <mxCell id="44" value="2: Vérifie si la config existe&amp;nbsp;" style="text;html=1;align=center;verticalAlign=middle;resizable=0;points=[];autosize=1;strokeColor=none;fillColor=none;" vertex="1" parent="39">
                    <mxGeometry x="270" y="60" width="170" height="30" as="geometry"/>
                </mxCell>
                <mxCell id="45" value="1: Envoie de la config" style="text;html=1;align=center;verticalAlign=middle;resizable=0;points=[];autosize=1;strokeColor=none;fillColor=none;" vertex="1" parent="39">
                    <mxGeometry x="90" y="50" width="140" height="30" as="geometry"/>
                </mxCell>
                <mxCell id="55" value="" style="whiteSpace=wrap;html=1;fillColor=#0050ef;fontColor=#ffffff;strokeColor=#001DBC;" vertex="1" parent="39">
                    <mxGeometry x="58" y="60" width="15" height="40" as="geometry"/>
                </mxCell>
                <mxCell id="59" value="" style="whiteSpace=wrap;html=1;fillColor=#0050ef;fontColor=#ffffff;strokeColor=#001DBC;" vertex="1" parent="39">
                    <mxGeometry x="262.5" y="95" width="15" height="25" as="geometry"/>
                </mxCell>
                <mxCell id="64" value="" style="edgeStyle=none;orthogonalLoop=1;jettySize=auto;html=1;sketch=0;startArrow=classic;startFill=1;endArrow=none;endFill=0;dashed=1;" edge="1" parent="39">
                    <mxGeometry width="100" relative="1" as="geometry">
                        <mxPoint x="72.5" y="229.9999999999999" as="sourcePoint"/>
                        <mxPoint x="262.5" y="229.9999999999999" as="targetPoint"/>
                        <Array as="points"/>
                    </mxGeometry>
                </mxCell>
                <mxCell id="67" value="" style="edgeStyle=none;orthogonalLoop=1;jettySize=auto;html=1;sketch=0;startArrow=none;startFill=0;endArrow=classic;endFill=1;startSize=8;exitX=0.074;exitY=0.42;exitDx=0;exitDy=0;exitPerimeter=0;" edge="1" parent="39">
                    <mxGeometry width="100" relative="1" as="geometry">
                        <mxPoint x="273.5" y="181.71000000000004" as="sourcePoint"/>
                        <mxPoint x="461.02" y="181.71000000000004" as="targetPoint"/>
                        <Array as="points"/>
                    </mxGeometry>
                </mxCell>
                <mxCell id="68" value="" style="whiteSpace=wrap;html=1;fillColor=#0050ef;fontColor=#ffffff;strokeColor=#001DBC;" vertex="1" parent="39">
                    <mxGeometry x="460" y="183" width="15" height="27" as="geometry"/>
                </mxCell>
                <mxCell id="69" value="&lt;font style=&quot;font-size: 8px;&quot;&gt;[N'existe pas]&lt;/font&gt;" style="text;html=1;align=center;verticalAlign=middle;resizable=0;points=[];autosize=1;strokeColor=none;fillColor=none;" vertex="1" parent="39">
                    <mxGeometry x="60" y="130" width="70" height="30" as="geometry"/>
                </mxCell>
                <mxCell id="70" value="&lt;span style=&quot;font-size: 8px;&quot;&gt;[Existe]&lt;/span&gt;" style="text;html=1;align=center;verticalAlign=middle;resizable=0;points=[];autosize=1;strokeColor=none;fillColor=none;" vertex="1" parent="39">
                    <mxGeometry x="60" y="200" width="50" height="30" as="geometry"/>
                </mxCell>
                <mxCell id="71" value="4: Confirmation" style="text;html=1;align=center;verticalAlign=middle;resizable=0;points=[];autosize=1;strokeColor=none;fillColor=none;" vertex="1" parent="39">
                    <mxGeometry x="110" y="167" width="100" height="30" as="geometry"/>
                </mxCell>
                <mxCell id="72" value="5: Erreur" style="text;html=1;align=center;verticalAlign=middle;resizable=0;points=[];autosize=1;strokeColor=none;fillColor=none;" vertex="1" parent="39">
                    <mxGeometry x="125" y="227" width="70" height="30" as="geometry"/>
                </mxCell>
                <mxCell id="73" value="3: requête sql" style="text;html=1;align=center;verticalAlign=middle;resizable=0;points=[];autosize=1;strokeColor=none;fillColor=none;" vertex="1" parent="39">
                    <mxGeometry x="320" y="153" width="100" height="30" as="geometry"/>
                </mxCell>
                <mxCell id="75" value="" style="shape=loopLimit;whiteSpace=wrap;html=1;strokeColor=#F0F0F0;fontSize=8;fillColor=#F0F0F0;direction=south;size=20;" vertex="1" parent="39">
                    <mxGeometry x="50" y="107" width="40" height="23" as="geometry"/>
                </mxCell>
                <mxCell id="76" value="alt" style="text;html=1;align=center;verticalAlign=middle;resizable=0;points=[];autosize=1;strokeColor=none;fillColor=none;fontSize=8;fontColor=#313030;" vertex="1" parent="39">
                    <mxGeometry x="50.5" y="108.5" width="30" height="20" as="geometry"/>
                </mxCell>
                <mxCell id="58" value="" style="edgeStyle=none;orthogonalLoop=1;jettySize=auto;html=1;hachureGap=4;fontFamily=Architects Daughter;fontSource=https%3A%2F%2Ffonts.googleapis.com%2Fcss%3Ffamily%3DArchitects%2BDaughter;fontSize=16;endArrow=none;endFill=0;strokeWidth=2;dashed=1;" edge="1" parent="1" target="56">
                    <mxGeometry width="80" relative="1" as="geometry">
                        <mxPoint x="395" y="770" as="sourcePoint"/>
                        <mxPoint x="395" y="550" as="targetPoint"/>
                        <Array as="points"/>
                    </mxGeometry>
                </mxCell>
                <mxCell id="77" value="" style="whiteSpace=wrap;html=1;fillColor=#0050ef;fontColor=#ffffff;strokeColor=#001DBC;" vertex="1" parent="1">
                    <mxGeometry x="387.5" y="905" width="15" height="155" as="geometry"/>
                </mxCell>
                <mxCell id="78" value="" style="edgeStyle=none;orthogonalLoop=1;jettySize=auto;html=1;hachureGap=4;fontFamily=Architects Daughter;fontSource=https%3A%2F%2Ffonts.googleapis.com%2Fcss%3Ffamily%3DArchitects%2BDaughter;fontSize=16;endArrow=none;endFill=0;strokeWidth=2;dashed=1;" edge="1" parent="1">
                    <mxGeometry width="80" relative="1" as="geometry">
                        <mxPoint x="195" y="1110" as="sourcePoint"/>
                        <mxPoint x="194.74" y="890" as="targetPoint"/>
                    </mxGeometry>
                </mxCell>
                <mxCell id="79" value="" style="edgeStyle=none;orthogonalLoop=1;jettySize=auto;html=1;hachureGap=4;fontFamily=Architects Daughter;fontSource=https%3A%2F%2Ffonts.googleapis.com%2Fcss%3Ffamily%3DArchitects%2BDaughter;fontSize=16;endArrow=none;endFill=0;strokeWidth=2;dashed=1;startArrow=none;" edge="1" parent="1" source="77">
                    <mxGeometry width="80" relative="1" as="geometry">
                        <mxPoint x="395" y="1110" as="sourcePoint"/>
                        <mxPoint x="395" y="890" as="targetPoint"/>
                        <Array as="points"/>
                    </mxGeometry>
                </mxCell>
                <mxCell id="80" value="" style="edgeStyle=none;orthogonalLoop=1;jettySize=auto;html=1;hachureGap=4;fontFamily=Architects Daughter;fontSource=https%3A%2F%2Ffonts.googleapis.com%2Fcss%3Ffamily%3DArchitects%2BDaughter;fontSize=16;endArrow=none;endFill=0;strokeWidth=2;dashed=1;" edge="1" parent="1">
                    <mxGeometry width="80" relative="1" as="geometry">
                        <mxPoint x="595" y="1110" as="sourcePoint"/>
                        <mxPoint x="595" y="890" as="targetPoint"/>
                        <Array as="points"/>
                    </mxGeometry>
                </mxCell>
                <mxCell id="81" value="Client" style="text;html=1;align=center;verticalAlign=middle;resizable=0;points=[];autosize=1;strokeColor=none;fillColor=none;" vertex="1" parent="1">
                    <mxGeometry x="165" y="860" width="50" height="30" as="geometry"/>
                </mxCell>
                <mxCell id="82" value="Serveur" style="text;html=1;align=center;verticalAlign=middle;resizable=0;points=[];autosize=1;strokeColor=none;fillColor=none;" vertex="1" parent="1">
                    <mxGeometry x="355" y="860" width="70" height="30" as="geometry"/>
                </mxCell>
                <mxCell id="83" value="Base de donnée" style="text;html=1;align=center;verticalAlign=middle;resizable=0;points=[];autosize=1;strokeColor=none;fillColor=none;" vertex="1" parent="1">
                    <mxGeometry x="535" y="860" width="110" height="30" as="geometry"/>
                </mxCell>
                <mxCell id="84" value="Supression d'une configuration" style="swimlane;whiteSpace=wrap;html=1;fillColor=none;" vertex="1" parent="1">
                    <mxGeometry x="130" y="830" width="540" height="310" as="geometry"/>
                </mxCell>
                <mxCell id="85" value="" style="rounded=0;whiteSpace=wrap;html=1;strokeColor=default;fillColor=none;" vertex="1" parent="84">
                    <mxGeometry x="50" y="107" width="270" height="150" as="geometry"/>
                </mxCell>
                <mxCell id="86" value="" style="edgeStyle=none;orthogonalLoop=1;jettySize=auto;html=1;sketch=0;startArrow=classic;startFill=1;endArrow=none;endFill=0;startSize=8;exitX=0.074;exitY=0.42;exitDx=0;exitDy=0;exitPerimeter=0;dashed=1;" edge="1" parent="84" source="85">
                    <mxGeometry width="100" relative="1" as="geometry">
                        <mxPoint x="80" y="170" as="sourcePoint"/>
                        <mxPoint x="257.5" y="170" as="targetPoint"/>
                        <Array as="points"/>
                    </mxGeometry>
                </mxCell>
                <mxCell id="87" value="" style="edgeStyle=none;orthogonalLoop=1;jettySize=auto;html=1;sketch=0;" edge="1" parent="84">
                    <mxGeometry width="100" relative="1" as="geometry">
                        <mxPoint x="70" y="80" as="sourcePoint"/>
                        <mxPoint x="260" y="80" as="targetPoint"/>
                        <Array as="points"/>
                    </mxGeometry>
                </mxCell>
                <mxCell id="88" value="" style="edgeStyle=none;orthogonalLoop=1;jettySize=auto;html=1;sketch=0;startArrow=classic;startFill=1;endArrow=none;endFill=0;entryX=1.079;entryY=0.243;entryDx=0;entryDy=0;entryPerimeter=0;" edge="1" parent="84">
                    <mxGeometry width="80" relative="1" as="geometry">
                        <mxPoint x="280" y="97" as="sourcePoint"/>
                        <mxPoint x="273.68500000000006" y="82.93499999999995" as="targetPoint"/>
                        <Array as="points">
                            <mxPoint x="310" y="102"/>
                            <mxPoint x="330" y="102"/>
                            <mxPoint x="330" y="82"/>
                            <mxPoint x="310" y="82"/>
                        </Array>
                    </mxGeometry>
                </mxCell>
                <mxCell id="89" value="2: Vérifie si la config existe&amp;nbsp;" style="text;html=1;align=center;verticalAlign=middle;resizable=0;points=[];autosize=1;strokeColor=none;fillColor=none;" vertex="1" parent="84">
                    <mxGeometry x="270" y="60" width="170" height="30" as="geometry"/>
                </mxCell>
                <mxCell id="90" value="1: Envoie requête" style="text;html=1;align=center;verticalAlign=middle;resizable=0;points=[];autosize=1;strokeColor=none;fillColor=none;" vertex="1" parent="84">
                    <mxGeometry x="100" y="50" width="120" height="30" as="geometry"/>
                </mxCell>
                <mxCell id="91" value="" style="whiteSpace=wrap;html=1;fillColor=#0050ef;fontColor=#ffffff;strokeColor=#001DBC;" vertex="1" parent="84">
                    <mxGeometry x="58" y="60" width="15" height="40" as="geometry"/>
                </mxCell>
                <mxCell id="92" value="" style="whiteSpace=wrap;html=1;fillColor=#0050ef;fontColor=#ffffff;strokeColor=#001DBC;" vertex="1" parent="84">
                    <mxGeometry x="262.5" y="95" width="15" height="25" as="geometry"/>
                </mxCell>
                <mxCell id="93" value="" style="edgeStyle=none;orthogonalLoop=1;jettySize=auto;html=1;sketch=0;startArrow=classic;startFill=1;endArrow=none;endFill=0;dashed=1;" edge="1" parent="84">
                    <mxGeometry width="100" relative="1" as="geometry">
                        <mxPoint x="72.5" y="229.9999999999999" as="sourcePoint"/>
                        <mxPoint x="262.5" y="229.9999999999999" as="targetPoint"/>
                        <Array as="points"/>
                    </mxGeometry>
                </mxCell>
                <mxCell id="94" value="" style="edgeStyle=none;orthogonalLoop=1;jettySize=auto;html=1;sketch=0;startArrow=none;startFill=0;endArrow=classic;endFill=1;startSize=8;exitX=0.074;exitY=0.42;exitDx=0;exitDy=0;exitPerimeter=0;" edge="1" parent="84">
                    <mxGeometry width="100" relative="1" as="geometry">
                        <mxPoint x="273.5" y="181.71000000000004" as="sourcePoint"/>
                        <mxPoint x="461.02" y="181.71000000000004" as="targetPoint"/>
                        <Array as="points"/>
                    </mxGeometry>
                </mxCell>
                <mxCell id="95" value="" style="whiteSpace=wrap;html=1;fillColor=#0050ef;fontColor=#ffffff;strokeColor=#001DBC;" vertex="1" parent="84">
                    <mxGeometry x="460" y="183" width="15" height="27" as="geometry"/>
                </mxCell>
                <mxCell id="96" value="&lt;font style=&quot;font-size: 8px;&quot;&gt;[N'existe pas]&lt;/font&gt;" style="text;html=1;align=center;verticalAlign=middle;resizable=0;points=[];autosize=1;strokeColor=none;fillColor=none;" vertex="1" parent="84">
                    <mxGeometry x="60" y="198" width="70" height="30" as="geometry"/>
                </mxCell>
                <mxCell id="97" value="&lt;span style=&quot;font-size: 8px;&quot;&gt;[Existe]&lt;/span&gt;" style="text;html=1;align=center;verticalAlign=middle;resizable=0;points=[];autosize=1;strokeColor=none;fillColor=none;" vertex="1" parent="84">
                    <mxGeometry x="58" y="137" width="50" height="30" as="geometry"/>
                </mxCell>
                <mxCell id="98" value="4: Confirmation" style="text;html=1;align=center;verticalAlign=middle;resizable=0;points=[];autosize=1;strokeColor=none;fillColor=none;" vertex="1" parent="84">
                    <mxGeometry x="110" y="167" width="100" height="30" as="geometry"/>
                </mxCell>
                <mxCell id="99" value="5: Erreur" style="text;html=1;align=center;verticalAlign=middle;resizable=0;points=[];autosize=1;strokeColor=none;fillColor=none;" vertex="1" parent="84">
                    <mxGeometry x="125" y="227" width="70" height="30" as="geometry"/>
                </mxCell>
                <mxCell id="100" value="3: requête sql" style="text;html=1;align=center;verticalAlign=middle;resizable=0;points=[];autosize=1;strokeColor=none;fillColor=none;" vertex="1" parent="84">
                    <mxGeometry x="320" y="153" width="100" height="30" as="geometry"/>
                </mxCell>
                <mxCell id="101" value="" style="shape=loopLimit;whiteSpace=wrap;html=1;strokeColor=#F0F0F0;fontSize=8;fillColor=#F0F0F0;direction=south;size=20;" vertex="1" parent="84">
                    <mxGeometry x="50" y="107" width="40" height="23" as="geometry"/>
                </mxCell>
                <mxCell id="102" value="alt" style="text;html=1;align=center;verticalAlign=middle;resizable=0;points=[];autosize=1;strokeColor=none;fillColor=none;fontSize=8;fontColor=#313030;" vertex="1" parent="84">
                    <mxGeometry x="50.5" y="108.5" width="30" height="20" as="geometry"/>
                </mxCell>
                <mxCell id="103" value="" style="edgeStyle=none;orthogonalLoop=1;jettySize=auto;html=1;hachureGap=4;fontFamily=Architects Daughter;fontSource=https%3A%2F%2Ffonts.googleapis.com%2Fcss%3Ffamily%3DArchitects%2BDaughter;fontSize=16;endArrow=none;endFill=0;strokeWidth=2;dashed=1;" edge="1" parent="1" target="77">
                    <mxGeometry width="80" relative="1" as="geometry">
                        <mxPoint x="395" y="1110" as="sourcePoint"/>
                        <mxPoint x="395" y="890" as="targetPoint"/>
                        <Array as="points"/>
                    </mxGeometry>
                </mxCell>
            </root>
        </mxGraphModel>
    </diagram>
</mxfile>